<svg width="984.0" height="2506.0" viewBox="0 0 984.0 2506.0" xmlns="http://www.w3.org/2000/svg">
<style>/* font and background color specifications */
svg {
    font-family: SFMono-Regular,Consolas,Liberation Mono,Menlo,monospace;
    font-size: 14px;
    font-kerning: normal;
    text-rendering: optimizeLegibility;
    fill: #24292e;
}

/* default key styling */
rect {
    fill: #f6f8fa;
    stroke: #c9cccf;
    stroke-width: 1;
}

/* color accent for combo boxes */
rect.combo {
    fill: #cdf;
}

/* color accent for held keys */
rect.held, rect.combo.held {
    fill: #fdd;
}

/* color accent for ghost (optional) keys */
rect.ghost, rect.combo.ghost {
    fill: #ddd;
}

text {
    text-anchor: middle;
    dominant-baseline: middle;
}

/* styling for layer labels */
text.label {
    font-weight: bold;
    text-anchor: start;
    stroke: white;
    stroke-width: 2;
    paint-order: stroke;
}

/* styling for combo tap, and key hold/shifted label text */
text.combo, text.hold, text.shifted {
    font-size: 11px;
}

text.hold {
    text-anchor: middle;
    dominant-baseline: auto;
}

text.shifted {
    text-anchor: middle;
    dominant-baseline: hanging;
}

/* styling for hold/shifted label text in combo box */
text.combo.hold, text.combo.shifted {
    font-size: 8px;
}

/* styling for combo dendrons */
path {
    stroke-width: 1;
    stroke: gray;
    fill: none;
}
</style>
<text x="30.0" y="28.0" class="label">Default:</text>
<rect rx="6.0" ry="6.0" x="32.0" y="86.0" width="52.0" height="52.0" class=""/>
<rect rx="6.0" ry="6.0" x="88.0" y="79.0" width="52.0" height="52.0" class=""/>
<rect rx="6.0" ry="6.0" x="144.0" y="65.0" width="52.0" height="52.0" class=""/>
<rect rx="6.0" ry="6.0" x="200.0" y="58.0" width="52.0" height="52.0" class=""/>
<rect rx="6.0" ry="6.0" x="256.0" y="65.0" width="52.0" height="52.0" class=""/>
<rect rx="6.0" ry="6.0" x="312.0" y="72.0" width="52.0" height="52.0" class=""/>
<rect rx="6.0" ry="6.0" x="620.0" y="72.0" width="52.0" height="52.0" class=""/>
<rect rx="6.0" ry="6.0" x="676.0" y="65.0" width="52.0" height="52.0" class=""/>
<rect rx="6.0" ry="6.0" x="732.0" y="58.0" width="52.0" height="52.0" class=""/>
<rect rx="6.0" ry="6.0" x="788.0" y="65.0" width="52.0" height="52.0" class=""/>
<rect rx="6.0" ry="6.0" x="844.0" y="79.0" width="52.0" height="52.0" class=""/>
<rect rx="6.0" ry="6.0" x="900.0" y="86.0" width="52.0" height="52.0" class=""/>
<rect rx="6.0" ry="6.0" x="32.0" y="142.0" width="52.0" height="52.0" class=""/>
<rect rx="6.0" ry="6.0" x="88.0" y="135.0" width="52.0" height="52.0" class=""/>
<text x="114.0" y="161.0" class="tap">A</text>
<rect rx="6.0" ry="6.0" x="144.0" y="121.0" width="52.0" height="52.0" class=""/>
<text x="170.0" y="147.0" class="tap">Z</text>
<rect rx="6.0" ry="6.0" x="200.0" y="114.0" width="52.0" height="52.0" class=""/>
<text x="226.0" y="140.0" class="tap">E</text>
<rect rx="6.0" ry="6.0" x="256.0" y="121.0" width="52.0" height="52.0" class=""/>
<text x="282.0" y="147.0" class="tap">R</text>
<rect rx="6.0" ry="6.0" x="312.0" y="128.0" width="52.0" height="52.0" class=""/>
<text x="338.0" y="154.0" class="tap">T</text>
<rect rx="6.0" ry="6.0" x="620.0" y="128.0" width="52.0" height="52.0" class=""/>
<text x="646.0" y="154.0" class="tap">Y</text>
<rect rx="6.0" ry="6.0" x="676.0" y="121.0" width="52.0" height="52.0" class=""/>
<text x="702.0" y="147.0" class="tap">U</text>
<rect rx="6.0" ry="6.0" x="732.0" y="114.0" width="52.0" height="52.0" class=""/>
<text x="758.0" y="140.0" class="tap">I</text>
<rect rx="6.0" ry="6.0" x="788.0" y="121.0" width="52.0" height="52.0" class=""/>
<text x="814.0" y="147.0" class="tap">O</text>
<rect rx="6.0" ry="6.0" x="844.0" y="135.0" width="52.0" height="52.0" class=""/>
<text x="870.0" y="161.0" class="tap">P</text>
<rect rx="6.0" ry="6.0" x="900.0" y="142.0" width="52.0" height="52.0" class=""/>
<rect rx="6.0" ry="6.0" x="32.0" y="198.0" width="52.0" height="52.0" class=""/>
<text x="58.0" y="224.0" class="tap">ESC</text>
<text x="58.0" y="248.0" class="hold">LMouse</text>
<rect rx="6.0" ry="6.0" x="88.0" y="191.0" width="52.0" height="52.0" class=""/>
<text x="114.0" y="217.0" class="tap">Q</text>
<rect rx="6.0" ry="6.0" x="144.0" y="177.0" width="52.0" height="52.0" class=""/>
<text x="170.0" y="203.0" class="tap">S</text>
<rect rx="6.0" ry="6.0" x="200.0" y="170.0" width="52.0" height="52.0" class=""/>
<text x="226.0" y="196.0" class="tap">D</text>
<rect rx="6.0" ry="6.0" x="256.0" y="177.0" width="52.0" height="52.0" class=""/>
<text x="282.0" y="203.0" class="tap">F</text>
<rect rx="6.0" ry="6.0" x="312.0" y="184.0" width="52.0" height="52.0" class=""/>
<text x="338.0" y="210.0" class="tap">G</text>
<rect rx="6.0" ry="6.0" x="620.0" y="184.0" width="52.0" height="52.0" class=""/>
<text x="646.0" y="210.0" class="tap">H</text>
<rect rx="6.0" ry="6.0" x="676.0" y="177.0" width="52.0" height="52.0" class=""/>
<text x="702.0" y="203.0" class="tap">J</text>
<rect rx="6.0" ry="6.0" x="732.0" y="170.0" width="52.0" height="52.0" class=""/>
<text x="758.0" y="196.0" class="tap">K</text>
<rect rx="6.0" ry="6.0" x="788.0" y="177.0" width="52.0" height="52.0" class=""/>
<text x="814.0" y="203.0" class="tap">L</text>
<rect rx="6.0" ry="6.0" x="844.0" y="191.0" width="52.0" height="52.0" class=""/>
<text x="870.0" y="217.0" class="tap">M</text>
<rect rx="6.0" ry="6.0" x="900.0" y="198.0" width="52.0" height="52.0" class=""/>
<text x="926.0" y="224.0" class="tap">
<tspan x="926.0" dy="-1.2em">¨</tspan><tspan x="926.0" dy="1.2em">^</tspan></text>
<text x="926.0" y="248.0" class="hold">LMedia</text>
<rect rx="6.0" ry="6.0" x="32.0" y="254.0" width="52.0" height="52.0" class=""/>
<text x="58.0" y="280.0" class="tap">LCTL</text>
<rect rx="6.0" ry="6.0" x="88.0" y="247.0" width="52.0" height="52.0" class=""/>
<text x="114.0" y="273.0" class="tap">W</text>
<rect rx="6.0" ry="6.0" x="144.0" y="233.0" width="52.0" height="52.0" class=""/>
<text x="170.0" y="259.0" class="tap">X</text>
<rect rx="6.0" ry="6.0" x="200.0" y="226.0" width="52.0" height="52.0" class=""/>
<text x="226.0" y="252.0" class="tap">C</text>
<rect rx="6.0" ry="6.0" x="256.0" y="233.0" width="52.0" height="52.0" class=""/>
<text x="282.0" y="259.0" class="tap">V</text>
<rect rx="6.0" ry="6.0" x="312.0" y="240.0" width="52.0" height="52.0" class=""/>
<text x="338.0" y="266.0" class="tap">B</text>
<rect rx="6.0" ry="6.0" x="368.0" y="212.0" width="52.0" height="52.0" class=""/>
<text x="394.0" y="238.0" class="tap">MUTE</text>
<rect rx="6.0" ry="6.0" x="564.0" y="212.0" width="52.0" height="52.0" class=""/>
<text x="590.0" y="238.0" class="tap">MPLY</text>
<rect rx="6.0" ry="6.0" x="620.0" y="240.0" width="52.0" height="52.0" class=""/>
<text x="646.0" y="266.0" class="tap">N</text>
<rect rx="6.0" ry="6.0" x="676.0" y="233.0" width="52.0" height="52.0" class=""/>
<text x="702.0" y="259.0" class="tap">
<tspan x="702.0" dy="-0.6em">?</tspan><tspan x="702.0" dy="1.2em">,</tspan></text>
<rect rx="6.0" ry="6.0" x="732.0" y="226.0" width="52.0" height="52.0" class=""/>
<text x="758.0" y="252.0" class="tap">
<tspan x="758.0" dy="-0.6em">.</tspan><tspan x="758.0" dy="1.2em">;</tspan></text>
<rect rx="6.0" ry="6.0" x="788.0" y="233.0" width="52.0" height="52.0" class=""/>
<text x="814.0" y="259.0" class="tap">
<tspan x="814.0" dy="-0.6em">/</tspan><tspan x="814.0" dy="1.2em">:&#x27;</tspan></text>
<rect rx="6.0" ry="6.0" x="844.0" y="247.0" width="52.0" height="52.0" class=""/>
<text x="870.0" y="273.0" class="tap">
<tspan x="870.0" dy="-0.6em">\</tspan><tspan x="870.0" dy="1.2em">!</tspan></text>
<rect rx="6.0" ry="6.0" x="900.0" y="254.0" width="52.0" height="52.0" class=""/>
<text x="926.0" y="280.0" class="tap">DEL</text>
<rect rx="6.0" ry="6.0" x="172.0" y="290.40000000000003" width="52.0" height="52.0" class=""/>
<text x="198.0" y="316.40000000000003" class="tap">LALT</text>
<rect rx="6.0" ry="6.0" x="228.0" y="290.40000000000003" width="52.0" height="52.0" class=""/>
<text x="254.0" y="316.40000000000003" class="tap">LGUI</text>
<rect rx="6.0" ry="6.0" x="284.0" y="296.0" width="52.0" height="52.0" class=""/>
<text x="310.0" y="322.0" class="tap">TAB</text>
<text x="310.0" y="346.0" class="hold">LUnic</text>
<rect rx="6.0" ry="6.0" x="368.0" y="296.0" width="52.0" height="52.0" class=""/>
<text x="394.0" y="322.0" class="tap">ENT</text>
<text x="394.0" y="346.0" class="hold">LFun</text>
<rect rx="6.0" ry="6.0" x="564.0" y="296.0" width="52.0" height="52.0" class=""/>
<text x="590.0" y="322.0" class="tap">SPC</text>
<text x="590.0" y="346.0" class="hold">LNumArr</text>
<rect rx="6.0" ry="6.0" x="648.0" y="296.0" width="52.0" height="52.0" class=""/>
<text x="674.0" y="322.0" class="tap">BSPC</text>
<text x="674.0" y="346.0" class="hold">LSFT</text>
<rect rx="6.0" ry="6.0" x="704.0" y="290.40000000000003" width="52.0" height="52.0" class=""/>
<text x="730.0" y="316.40000000000003" class="tap">APP</text>
<rect rx="6.0" ry="6.0" x="760.0" y="290.40000000000003" width="52.0" height="52.0" class=""/>
<text x="786.0" y="316.40000000000003" class="tap">RALT</text>
<rect rx="6.0" ry="6.0" x="100.0" y="232.0" width="28.0" height="26.0" class="combo"/>
<text x="114.0" y="245.0" class="combo">A</text>
<rect rx="6.0" ry="6.0" x="856.0" y="232.0" width="28.0" height="26.0" class="combo"/>
<text x="870.0" y="245.0" class="combo">P</text>
<text x="30.0" y="378.0" class="label">NumArr:</text>
<rect rx="6.0" ry="6.0" x="32.0" y="436.0" width="52.0" height="52.0" class=""/>
<rect rx="6.0" ry="6.0" x="88.0" y="429.0" width="52.0" height="52.0" class=""/>
<rect rx="6.0" ry="6.0" x="144.0" y="415.0" width="52.0" height="52.0" class=""/>
<rect rx="6.0" ry="6.0" x="200.0" y="408.0" width="52.0" height="52.0" class=""/>
<rect rx="6.0" ry="6.0" x="256.0" y="415.0" width="52.0" height="52.0" class=""/>
<rect rx="6.0" ry="6.0" x="312.0" y="422.0" width="52.0" height="52.0" class=""/>
<rect rx="6.0" ry="6.0" x="620.0" y="422.0" width="52.0" height="52.0" class=""/>
<rect rx="6.0" ry="6.0" x="676.0" y="415.0" width="52.0" height="52.0" class=""/>
<rect rx="6.0" ry="6.0" x="732.0" y="408.0" width="52.0" height="52.0" class=""/>
<rect rx="6.0" ry="6.0" x="788.0" y="415.0" width="52.0" height="52.0" class=""/>
<rect rx="6.0" ry="6.0" x="844.0" y="429.0" width="52.0" height="52.0" class=""/>
<rect rx="6.0" ry="6.0" x="900.0" y="436.0" width="52.0" height="52.0" class=""/>
<rect rx="6.0" ry="6.0" x="32.0" y="492.0" width="52.0" height="52.0" class=""/>
<rect rx="6.0" ry="6.0" x="88.0" y="485.0" width="52.0" height="52.0" class=""/>
<text x="114.0" y="511.0" class="tap">6</text>
<rect rx="6.0" ry="6.0" x="144.0" y="471.0" width="52.0" height="52.0" class=""/>
<text x="170.0" y="497.0" class="tap">7</text>
<rect rx="6.0" ry="6.0" x="200.0" y="464.0" width="52.0" height="52.0" class=""/>
<text x="226.0" y="490.0" class="tap">8</text>
<rect rx="6.0" ry="6.0" x="256.0" y="471.0" width="52.0" height="52.0" class=""/>
<text x="282.0" y="497.0" class="tap">9</text>
<rect rx="6.0" ry="6.0" x="312.0" y="478.0" width="52.0" height="52.0" class=""/>
<text x="338.0" y="504.0" class="tap">0</text>
<rect rx="6.0" ry="6.0" x="620.0" y="478.0" width="52.0" height="52.0" class=""/>
<text x="646.0" y="504.0" class="tap">PGUP</text>
<rect rx="6.0" ry="6.0" x="676.0" y="471.0" width="52.0" height="52.0" class=""/>
<text x="702.0" y="497.0" class="tap">QUOT</text>
<rect rx="6.0" ry="6.0" x="732.0" y="464.0" width="52.0" height="52.0" class=""/>
<text x="758.0" y="490.0" class="tap">UP</text>
<rect rx="6.0" ry="6.0" x="788.0" y="471.0" width="52.0" height="52.0" class=""/>
<text x="814.0" y="497.0" class="tap">DQUO</text>
<rect rx="6.0" ry="6.0" x="844.0" y="485.0" width="52.0" height="52.0" class=""/>
<text x="870.0" y="511.0" class="tap">HOME</text>
<rect rx="6.0" ry="6.0" x="900.0" y="492.0" width="52.0" height="52.0" class=""/>
<rect rx="6.0" ry="6.0" x="32.0" y="548.0" width="52.0" height="52.0" class=""/>
<text x="58.0" y="574.0" class="tap">EQL</text>
<rect rx="6.0" ry="6.0" x="88.0" y="541.0" width="52.0" height="52.0" class=""/>
<text x="114.0" y="567.0" class="tap">1</text>
<rect rx="6.0" ry="6.0" x="144.0" y="527.0" width="52.0" height="52.0" class=""/>
<text x="170.0" y="553.0" class="tap">2</text>
<rect rx="6.0" ry="6.0" x="200.0" y="520.0" width="52.0" height="52.0" class=""/>
<text x="226.0" y="546.0" class="tap">3</text>
<rect rx="6.0" ry="6.0" x="256.0" y="527.0" width="52.0" height="52.0" class=""/>
<text x="282.0" y="553.0" class="tap">4</text>
<rect rx="6.0" ry="6.0" x="312.0" y="534.0" width="52.0" height="52.0" class=""/>
<text x="338.0" y="560.0" class="tap">5</text>
<rect rx="6.0" ry="6.0" x="620.0" y="534.0" width="52.0" height="52.0" class=""/>
<text x="646.0" y="560.0" class="tap">PGDN</text>
<rect rx="6.0" ry="6.0" x="676.0" y="527.0" width="52.0" height="52.0" class=""/>
<text x="702.0" y="553.0" class="tap">LEFT</text>
<rect rx="6.0" ry="6.0" x="732.0" y="520.0" width="52.0" height="52.0" class=""/>
<text x="758.0" y="546.0" class="tap">DOWN</text>
<rect rx="6.0" ry="6.0" x="788.0" y="527.0" width="52.0" height="52.0" class=""/>
<text x="814.0" y="553.0" class="tap">RGHT</text>
<rect rx="6.0" ry="6.0" x="844.0" y="541.0" width="52.0" height="52.0" class=""/>
<text x="870.0" y="567.0" class="tap">END</text>
<rect rx="6.0" ry="6.0" x="900.0" y="548.0" width="52.0" height="52.0" class=""/>
<rect rx="6.0" ry="6.0" x="32.0" y="604.0" width="52.0" height="52.0" class=""/>
<rect rx="6.0" ry="6.0" x="88.0" y="597.0" width="52.0" height="52.0" class=""/>
<text x="114.0" y="623.0" class="tap">%</text>
<rect rx="6.0" ry="6.0" x="144.0" y="583.0" width="52.0" height="52.0" class=""/>
<text x="170.0" y="609.0" class="tap">PSLS</text>
<rect rx="6.0" ry="6.0" x="200.0" y="576.0" width="52.0" height="52.0" class=""/>
<text x="226.0" y="602.0" class="tap">PAST</text>
<rect rx="6.0" ry="6.0" x="256.0" y="583.0" width="52.0" height="52.0" class=""/>
<text x="282.0" y="609.0" class="tap">PMNS</text>
<rect rx="6.0" ry="6.0" x="312.0" y="590.0" width="52.0" height="52.0" class=""/>
<text x="338.0" y="616.0" class="tap">PPLS</text>
<rect rx="6.0" ry="6.0" x="368.0" y="562.0" width="52.0" height="52.0" class=""/>
<rect rx="6.0" ry="6.0" x="564.0" y="562.0" width="52.0" height="52.0" class=""/>
<rect rx="6.0" ry="6.0" x="620.0" y="590.0" width="52.0" height="52.0" class=""/>
<text x="646.0" y="616.0" class="tap">(</text>
<rect rx="6.0" ry="6.0" x="676.0" y="583.0" width="52.0" height="52.0" class=""/>
<text x="702.0" y="609.0" class="tap">)</text>
<rect rx="6.0" ry="6.0" x="732.0" y="576.0" width="52.0" height="52.0" class=""/>
<text x="758.0" y="602.0" class="tap">[</text>
<rect rx="6.0" ry="6.0" x="788.0" y="583.0" width="52.0" height="52.0" class=""/>
<text x="814.0" y="609.0" class="tap">]</text>
<rect rx="6.0" ry="6.0" x="844.0" y="597.0" width="52.0" height="52.0" class=""/>
<text x="870.0" y="623.0" class="tap">&lt;</text>
<rect rx="6.0" ry="6.0" x="900.0" y="604.0" width="52.0" height="52.0" class=""/>
<text x="926.0" y="630.0" class="tap">&gt;</text>
<rect rx="6.0" ry="6.0" x="172.0" y="640.4000000000001" width="52.0" height="52.0" class=""/>
<rect rx="6.0" ry="6.0" x="228.0" y="640.4000000000001" width="52.0" height="52.0" class=""/>
<rect rx="6.0" ry="6.0" x="284.0" y="646.0" width="52.0" height="52.0" class=""/>
<rect rx="6.0" ry="6.0" x="368.0" y="646.0" width="52.0" height="52.0" class=""/>
<rect rx="6.0" ry="6.0" x="564.0" y="646.0" width="52.0" height="52.0" class=""/>
<rect rx="6.0" ry="6.0" x="648.0" y="646.0" width="52.0" height="52.0" class=""/>
<rect rx="6.0" ry="6.0" x="704.0" y="640.4000000000001" width="52.0" height="52.0" class=""/>
<rect rx="6.0" ry="6.0" x="760.0" y="640.4000000000001" width="52.0" height="52.0" class=""/>
<text x="30.0" y="728.0" class="label">Unicode:</text>
<rect rx="6.0" ry="6.0" x="32.0" y="786.0" width="52.0" height="52.0" class=""/>
<rect rx="6.0" ry="6.0" x="88.0" y="779.0" width="52.0" height="52.0" class=""/>
<rect rx="6.0" ry="6.0" x="144.0" y="765.0" width="52.0" height="52.0" class=""/>
<rect rx="6.0" ry="6.0" x="200.0" y="758.0" width="52.0" height="52.0" class=""/>
<rect rx="6.0" ry="6.0" x="256.0" y="765.0" width="52.0" height="52.0" class=""/>
<rect rx="6.0" ry="6.0" x="312.0" y="772.0" width="52.0" height="52.0" class=""/>
<rect rx="6.0" ry="6.0" x="620.0" y="772.0" width="52.0" height="52.0" class=""/>
<rect rx="6.0" ry="6.0" x="676.0" y="765.0" width="52.0" height="52.0" class=""/>
<rect rx="6.0" ry="6.0" x="732.0" y="758.0" width="52.0" height="52.0" class=""/>
<rect rx="6.0" ry="6.0" x="788.0" y="765.0" width="52.0" height="52.0" class=""/>
<rect rx="6.0" ry="6.0" x="844.0" y="779.0" width="52.0" height="52.0" class=""/>
<rect rx="6.0" ry="6.0" x="900.0" y="786.0" width="52.0" height="52.0" class=""/>
<rect rx="6.0" ry="6.0" x="32.0" y="842.0" width="52.0" height="52.0" class=""/>
<rect rx="6.0" ry="6.0" x="88.0" y="835.0" width="52.0" height="52.0" class=""/>
<text x="114.0" y="861.0" class="tap">
<tspan x="114.0" dy="-0.6em">À</tspan><tspan x="114.0" dy="1.2em">à</tspan></text>
<rect rx="6.0" ry="6.0" x="144.0" y="821.0" width="52.0" height="52.0" class=""/>
<text x="170.0" y="847.0" class="tap">è</text>
<rect rx="6.0" ry="6.0" x="200.0" y="814.0" width="52.0" height="52.0" class=""/>
<text x="226.0" y="840.0" class="tap">
<tspan x="226.0" dy="-0.6em">É</tspan><tspan x="226.0" dy="1.2em">e</tspan></text>
<rect rx="6.0" ry="6.0" x="256.0" y="821.0" width="52.0" height="52.0" class=""/>
<text x="282.0" y="847.0" class="tap">®</text>
<rect rx="6.0" ry="6.0" x="312.0" y="828.0" width="52.0" height="52.0" class=""/>
<text x="338.0" y="854.0" class="tap">&amp;</text>
<rect rx="6.0" ry="6.0" x="620.0" y="828.0" width="52.0" height="52.0" class=""/>
<rect rx="6.0" ry="6.0" x="676.0" y="821.0" width="52.0" height="52.0" class=""/>
<text x="702.0" y="847.0" class="tap">ù</text>
<rect rx="6.0" ry="6.0" x="732.0" y="814.0" width="52.0" height="52.0" class=""/>
<rect rx="6.0" ry="6.0" x="788.0" y="821.0" width="52.0" height="52.0" class=""/>
<rect rx="6.0" ry="6.0" x="844.0" y="835.0" width="52.0" height="52.0" class=""/>
<rect rx="6.0" ry="6.0" x="900.0" y="842.0" width="52.0" height="52.0" class=""/>
<rect rx="6.0" ry="6.0" x="32.0" y="898.0" width="52.0" height="52.0" class=""/>
<rect rx="6.0" ry="6.0" x="88.0" y="891.0" width="52.0" height="52.0" class=""/>
<rect rx="6.0" ry="6.0" x="144.0" y="877.0" width="52.0" height="52.0" class=""/>
<text x="170.0" y="903.0" class="tap">$</text>
<rect rx="6.0" ry="6.0" x="200.0" y="870.0" width="52.0" height="52.0" class=""/>
<text x="226.0" y="896.0" class="tap">#</text>
<rect rx="6.0" ry="6.0" x="256.0" y="877.0" width="52.0" height="52.0" class=""/>
<rect rx="6.0" ry="6.0" x="312.0" y="884.0" width="52.0" height="52.0" class=""/>
<rect rx="6.0" ry="6.0" x="620.0" y="884.0" width="52.0" height="52.0" class=""/>
<text x="646.0" y="910.0" class="tap">`</text>
<rect rx="6.0" ry="6.0" x="676.0" y="877.0" width="52.0" height="52.0" class=""/>
<rect rx="6.0" ry="6.0" x="732.0" y="870.0" width="52.0" height="52.0" class=""/>
<rect rx="6.0" ry="6.0" x="788.0" y="877.0" width="52.0" height="52.0" class=""/>
<text x="814.0" y="903.0" class="tap">→</text>
<rect rx="6.0" ry="6.0" x="844.0" y="891.0" width="52.0" height="52.0" class=""/>
<text x="870.0" y="917.0" class="tap">µ</text>
<rect rx="6.0" ry="6.0" x="900.0" y="898.0" width="52.0" height="52.0" class=""/>
<rect rx="6.0" ry="6.0" x="32.0" y="954.0" width="52.0" height="52.0" class=""/>
<rect rx="6.0" ry="6.0" x="88.0" y="947.0" width="52.0" height="52.0" class=""/>
<rect rx="6.0" ry="6.0" x="144.0" y="933.0" width="52.0" height="52.0" class=""/>
<rect rx="6.0" ry="6.0" x="200.0" y="926.0" width="52.0" height="52.0" class=""/>
<text x="226.0" y="952.0" class="tap">
<tspan x="226.0" dy="-0.6em">Ç</tspan><tspan x="226.0" dy="1.2em">ç</tspan></text>
<rect rx="6.0" ry="6.0" x="256.0" y="933.0" width="52.0" height="52.0" class=""/>
<text x="282.0" y="959.0" class="tap">_</text>
<rect rx="6.0" ry="6.0" x="312.0" y="940.0" width="52.0" height="52.0" class=""/>
<text x="338.0" y="966.0" class="tap">-</text>
<rect rx="6.0" ry="6.0" x="368.0" y="912.0" width="52.0" height="52.0" class=""/>
<rect rx="6.0" ry="6.0" x="564.0" y="912.0" width="52.0" height="52.0" class=""/>
<rect rx="6.0" ry="6.0" x="620.0" y="940.0" width="52.0" height="52.0" class=""/>
<text x="646.0" y="966.0" class="tap">@</text>
<rect rx="6.0" ry="6.0" x="676.0" y="933.0" width="52.0" height="52.0" class=""/>
<text x="702.0" y="959.0" class="tap">¿</text>
<rect rx="6.0" ry="6.0" x="732.0" y="926.0" width="52.0" height="52.0" class=""/>
<text x="758.0" y="952.0" class="tap">{</text>
<rect rx="6.0" ry="6.0" x="788.0" y="933.0" width="52.0" height="52.0" class=""/>
<text x="814.0" y="959.0" class="tap">}</text>
<rect rx="6.0" ry="6.0" x="844.0" y="947.0" width="52.0" height="52.0" class=""/>
<text x="870.0" y="973.0" class="tap">¡</text>
<rect rx="6.0" ry="6.0" x="900.0" y="954.0" width="52.0" height="52.0" class=""/>
<rect rx="6.0" ry="6.0" x="172.0" y="990.4000000000001" width="52.0" height="52.0" class=""/>
<rect rx="6.0" ry="6.0" x="228.0" y="990.4000000000001" width="52.0" height="52.0" class=""/>
<rect rx="6.0" ry="6.0" x="284.0" y="996.0" width="52.0" height="52.0" class=""/>
<rect rx="6.0" ry="6.0" x="368.0" y="996.0" width="52.0" height="52.0" class=""/>
<rect rx="6.0" ry="6.0" x="564.0" y="996.0" width="52.0" height="52.0" class=""/>
<rect rx="6.0" ry="6.0" x="648.0" y="996.0" width="52.0" height="52.0" class=""/>
<rect rx="6.0" ry="6.0" x="704.0" y="990.4000000000001" width="52.0" height="52.0" class=""/>
<rect rx="6.0" ry="6.0" x="760.0" y="990.4000000000001" width="52.0" height="52.0" class=""/>
<text x="30.0" y="1078.0" class="label">Fun:</text>
<rect rx="6.0" ry="6.0" x="32.0" y="1136.0" width="52.0" height="52.0" class=""/>
<rect rx="6.0" ry="6.0" x="88.0" y="1129.0" width="52.0" height="52.0" class=""/>
<rect rx="6.0" ry="6.0" x="144.0" y="1115.0" width="52.0" height="52.0" class=""/>
<rect rx="6.0" ry="6.0" x="200.0" y="1108.0" width="52.0" height="52.0" class=""/>
<rect rx="6.0" ry="6.0" x="256.0" y="1115.0" width="52.0" height="52.0" class=""/>
<rect rx="6.0" ry="6.0" x="312.0" y="1122.0" width="52.0" height="52.0" class=""/>
<rect rx="6.0" ry="6.0" x="620.0" y="1122.0" width="52.0" height="52.0" class=""/>
<rect rx="6.0" ry="6.0" x="676.0" y="1115.0" width="52.0" height="52.0" class=""/>
<rect rx="6.0" ry="6.0" x="732.0" y="1108.0" width="52.0" height="52.0" class=""/>
<rect rx="6.0" ry="6.0" x="788.0" y="1115.0" width="52.0" height="52.0" class=""/>
<rect rx="6.0" ry="6.0" x="844.0" y="1129.0" width="52.0" height="52.0" class=""/>
<rect rx="6.0" ry="6.0" x="900.0" y="1136.0" width="52.0" height="52.0" class=""/>
<rect rx="6.0" ry="6.0" x="32.0" y="1192.0" width="52.0" height="52.0" class=""/>
<text x="58.0" y="1218.0" class="tap">F1</text>
<rect rx="6.0" ry="6.0" x="88.0" y="1185.0" width="52.0" height="52.0" class=""/>
<text x="114.0" y="1211.0" class="tap">F2</text>
<rect rx="6.0" ry="6.0" x="144.0" y="1171.0" width="52.0" height="52.0" class=""/>
<text x="170.0" y="1197.0" class="tap">F3</text>
<rect rx="6.0" ry="6.0" x="200.0" y="1164.0" width="52.0" height="52.0" class=""/>
<text x="226.0" y="1190.0" class="tap">F4</text>
<rect rx="6.0" ry="6.0" x="256.0" y="1171.0" width="52.0" height="52.0" class=""/>
<text x="282.0" y="1197.0" class="tap">F5</text>
<rect rx="6.0" ry="6.0" x="312.0" y="1178.0" width="52.0" height="52.0" class=""/>
<text x="338.0" y="1204.0" class="tap">F6</text>
<rect rx="6.0" ry="6.0" x="620.0" y="1178.0" width="52.0" height="52.0" class=""/>
<rect rx="6.0" ry="6.0" x="676.0" y="1171.0" width="52.0" height="52.0" class=""/>
<rect rx="6.0" ry="6.0" x="732.0" y="1164.0" width="52.0" height="52.0" class=""/>
<rect rx="6.0" ry="6.0" x="788.0" y="1171.0" width="52.0" height="52.0" class=""/>
<rect rx="6.0" ry="6.0" x="844.0" y="1185.0" width="52.0" height="52.0" class=""/>
<rect rx="6.0" ry="6.0" x="900.0" y="1192.0" width="52.0" height="52.0" class=""/>
<rect rx="6.0" ry="6.0" x="32.0" y="1248.0" width="52.0" height="52.0" class=""/>
<text x="58.0" y="1274.0" class="tap">F7</text>
<rect rx="6.0" ry="6.0" x="88.0" y="1241.0" width="52.0" height="52.0" class=""/>
<text x="114.0" y="1267.0" class="tap">F8</text>
<rect rx="6.0" ry="6.0" x="144.0" y="1227.0" width="52.0" height="52.0" class=""/>
<text x="170.0" y="1253.0" class="tap">F9</text>
<rect rx="6.0" ry="6.0" x="200.0" y="1220.0" width="52.0" height="52.0" class=""/>
<text x="226.0" y="1246.0" class="tap">F10</text>
<rect rx="6.0" ry="6.0" x="256.0" y="1227.0" width="52.0" height="52.0" class=""/>
<text x="282.0" y="1253.0" class="tap">F11</text>
<rect rx="6.0" ry="6.0" x="312.0" y="1234.0" width="52.0" height="52.0" class=""/>
<text x="338.0" y="1260.0" class="tap">F12</text>
<rect rx="6.0" ry="6.0" x="620.0" y="1234.0" width="52.0" height="52.0" class=""/>
<rect rx="6.0" ry="6.0" x="676.0" y="1227.0" width="52.0" height="52.0" class=""/>
<rect rx="6.0" ry="6.0" x="732.0" y="1220.0" width="52.0" height="52.0" class=""/>
<rect rx="6.0" ry="6.0" x="788.0" y="1227.0" width="52.0" height="52.0" class=""/>
<rect rx="6.0" ry="6.0" x="844.0" y="1241.0" width="52.0" height="52.0" class=""/>
<rect rx="6.0" ry="6.0" x="900.0" y="1248.0" width="52.0" height="52.0" class=""/>
<rect rx="6.0" ry="6.0" x="32.0" y="1304.0" width="52.0" height="52.0" class=""/>
<rect rx="6.0" ry="6.0" x="88.0" y="1297.0" width="52.0" height="52.0" class=""/>
<rect rx="6.0" ry="6.0" x="144.0" y="1283.0" width="52.0" height="52.0" class=""/>
<rect rx="6.0" ry="6.0" x="200.0" y="1276.0" width="52.0" height="52.0" class=""/>
<text x="226.0" y="1302.0" class="tap">
<tspan x="226.0" dy="-1.2em">Ctrl</tspan><tspan x="226.0" dy="1.2em">Alt</tspan><tspan x="226.0" dy="1.2em">Del</tspan></text>
<rect rx="6.0" ry="6.0" x="256.0" y="1283.0" width="52.0" height="52.0" class=""/>
<text x="282.0" y="1309.0" class="tap">
<tspan x="282.0" dy="-0.6em">Alt</tspan><tspan x="282.0" dy="1.2em">F4</tspan></text>
<rect rx="6.0" ry="6.0" x="312.0" y="1290.0" width="52.0" height="52.0" class=""/>
<text x="338.0" y="1316.0" class="tap">
<tspan x="338.0" dy="-1.2em">Ctrl</tspan><tspan x="338.0" dy="1.2em">Shft</tspan><tspan x="338.0" dy="1.2em">Esc</tspan></text>
<rect rx="6.0" ry="6.0" x="368.0" y="1262.0" width="52.0" height="52.0" class=""/>
<rect rx="6.0" ry="6.0" x="564.0" y="1262.0" width="52.0" height="52.0" class=""/>
<rect rx="6.0" ry="6.0" x="620.0" y="1290.0" width="52.0" height="52.0" class=""/>
<rect rx="6.0" ry="6.0" x="676.0" y="1283.0" width="52.0" height="52.0" class=""/>
<rect rx="6.0" ry="6.0" x="732.0" y="1276.0" width="52.0" height="52.0" class=""/>
<rect rx="6.0" ry="6.0" x="788.0" y="1283.0" width="52.0" height="52.0" class=""/>
<rect rx="6.0" ry="6.0" x="844.0" y="1297.0" width="52.0" height="52.0" class=""/>
<rect rx="6.0" ry="6.0" x="900.0" y="1304.0" width="52.0" height="52.0" class=""/>
<rect rx="6.0" ry="6.0" x="172.0" y="1340.4" width="52.0" height="52.0" class=""/>
<rect rx="6.0" ry="6.0" x="228.0" y="1340.4" width="52.0" height="52.0" class=""/>
<rect rx="6.0" ry="6.0" x="284.0" y="1346.0" width="52.0" height="52.0" class=""/>
<rect rx="6.0" ry="6.0" x="368.0" y="1346.0" width="52.0" height="52.0" class=""/>
<rect rx="6.0" ry="6.0" x="564.0" y="1346.0" width="52.0" height="52.0" class=""/>
<rect rx="6.0" ry="6.0" x="648.0" y="1346.0" width="52.0" height="52.0" class=""/>
<rect rx="6.0" ry="6.0" x="704.0" y="1340.4" width="52.0" height="52.0" class=""/>
<rect rx="6.0" ry="6.0" x="760.0" y="1340.4" width="52.0" height="52.0" class=""/>
<text x="30.0" y="1428.0" class="label">Media:</text>
<rect rx="6.0" ry="6.0" x="32.0" y="1486.0" width="52.0" height="52.0" class=""/>
<rect rx="6.0" ry="6.0" x="88.0" y="1479.0" width="52.0" height="52.0" class=""/>
<rect rx="6.0" ry="6.0" x="144.0" y="1465.0" width="52.0" height="52.0" class=""/>
<rect rx="6.0" ry="6.0" x="200.0" y="1458.0" width="52.0" height="52.0" class=""/>
<rect rx="6.0" ry="6.0" x="256.0" y="1465.0" width="52.0" height="52.0" class=""/>
<rect rx="6.0" ry="6.0" x="312.0" y="1472.0" width="52.0" height="52.0" class=""/>
<rect rx="6.0" ry="6.0" x="620.0" y="1472.0" width="52.0" height="52.0" class=""/>
<rect rx="6.0" ry="6.0" x="676.0" y="1465.0" width="52.0" height="52.0" class=""/>
<rect rx="6.0" ry="6.0" x="732.0" y="1458.0" width="52.0" height="52.0" class=""/>
<rect rx="6.0" ry="6.0" x="788.0" y="1465.0" width="52.0" height="52.0" class=""/>
<rect rx="6.0" ry="6.0" x="844.0" y="1479.0" width="52.0" height="52.0" class=""/>
<rect rx="6.0" ry="6.0" x="900.0" y="1486.0" width="52.0" height="52.0" class=""/>
<rect rx="6.0" ry="6.0" x="32.0" y="1542.0" width="52.0" height="52.0" class=""/>
<rect rx="6.0" ry="6.0" x="88.0" y="1535.0" width="52.0" height="52.0" class=""/>
<rect rx="6.0" ry="6.0" x="144.0" y="1521.0" width="52.0" height="52.0" class=""/>
<rect rx="6.0" ry="6.0" x="200.0" y="1514.0" width="52.0" height="52.0" class=""/>
<rect rx="6.0" ry="6.0" x="256.0" y="1521.0" width="52.0" height="52.0" class=""/>
<rect rx="6.0" ry="6.0" x="312.0" y="1528.0" width="52.0" height="52.0" class=""/>
<rect rx="6.0" ry="6.0" x="620.0" y="1528.0" width="52.0" height="52.0" class=""/>
<rect rx="6.0" ry="6.0" x="676.0" y="1521.0" width="52.0" height="52.0" class=""/>
<text x="702.0" y="1547.0" class="tap">MSTP</text>
<rect rx="6.0" ry="6.0" x="732.0" y="1514.0" width="52.0" height="52.0" class=""/>
<text x="758.0" y="1540.0" class="tap">VOLU</text>
<rect rx="6.0" ry="6.0" x="788.0" y="1521.0" width="52.0" height="52.0" class=""/>
<text x="814.0" y="1547.0" class="tap">MPLY</text>
<rect rx="6.0" ry="6.0" x="844.0" y="1535.0" width="52.0" height="52.0" class=""/>
<rect rx="6.0" ry="6.0" x="900.0" y="1542.0" width="52.0" height="52.0" class=""/>
<rect rx="6.0" ry="6.0" x="32.0" y="1598.0" width="52.0" height="52.0" class=""/>
<text x="58.0" y="1648.0" class="hold">Gaming</text>
<rect rx="6.0" ry="6.0" x="88.0" y="1591.0" width="52.0" height="52.0" class=""/>
<rect rx="6.0" ry="6.0" x="144.0" y="1577.0" width="52.0" height="52.0" class=""/>
<rect rx="6.0" ry="6.0" x="200.0" y="1570.0" width="52.0" height="52.0" class=""/>
<rect rx="6.0" ry="6.0" x="256.0" y="1577.0" width="52.0" height="52.0" class=""/>
<rect rx="6.0" ry="6.0" x="312.0" y="1584.0" width="52.0" height="52.0" class=""/>
<rect rx="6.0" ry="6.0" x="620.0" y="1584.0" width="52.0" height="52.0" class=""/>
<rect rx="6.0" ry="6.0" x="676.0" y="1577.0" width="52.0" height="52.0" class=""/>
<text x="702.0" y="1603.0" class="tap">MPRV</text>
<rect rx="6.0" ry="6.0" x="732.0" y="1570.0" width="52.0" height="52.0" class=""/>
<text x="758.0" y="1596.0" class="tap">VOLD</text>
<rect rx="6.0" ry="6.0" x="788.0" y="1577.0" width="52.0" height="52.0" class=""/>
<text x="814.0" y="1603.0" class="tap">MNXT</text>
<rect rx="6.0" ry="6.0" x="844.0" y="1591.0" width="52.0" height="52.0" class=""/>
<rect rx="6.0" ry="6.0" x="900.0" y="1598.0" width="52.0" height="52.0" class=""/>
<rect rx="6.0" ry="6.0" x="32.0" y="1654.0" width="52.0" height="52.0" class=""/>
<rect rx="6.0" ry="6.0" x="88.0" y="1647.0" width="52.0" height="52.0" class=""/>
<rect rx="6.0" ry="6.0" x="144.0" y="1633.0" width="52.0" height="52.0" class=""/>
<rect rx="6.0" ry="6.0" x="200.0" y="1626.0" width="52.0" height="52.0" class=""/>
<rect rx="6.0" ry="6.0" x="256.0" y="1633.0" width="52.0" height="52.0" class=""/>
<rect rx="6.0" ry="6.0" x="312.0" y="1640.0" width="52.0" height="52.0" class=""/>
<rect rx="6.0" ry="6.0" x="368.0" y="1612.0" width="52.0" height="52.0" class=""/>
<rect rx="6.0" ry="6.0" x="564.0" y="1612.0" width="52.0" height="52.0" class=""/>
<rect rx="6.0" ry="6.0" x="620.0" y="1640.0" width="52.0" height="52.0" class=""/>
<rect rx="6.0" ry="6.0" x="676.0" y="1633.0" width="52.0" height="52.0" class=""/>
<rect rx="6.0" ry="6.0" x="732.0" y="1626.0" width="52.0" height="52.0" class=""/>
<rect rx="6.0" ry="6.0" x="788.0" y="1633.0" width="52.0" height="52.0" class=""/>
<rect rx="6.0" ry="6.0" x="844.0" y="1647.0" width="52.0" height="52.0" class=""/>
<rect rx="6.0" ry="6.0" x="900.0" y="1654.0" width="52.0" height="52.0" class=""/>
<rect rx="6.0" ry="6.0" x="172.0" y="1690.4" width="52.0" height="52.0" class=""/>
<rect rx="6.0" ry="6.0" x="228.0" y="1690.4" width="52.0" height="52.0" class=""/>
<rect rx="6.0" ry="6.0" x="284.0" y="1696.0" width="52.0" height="52.0" class=""/>
<rect rx="6.0" ry="6.0" x="368.0" y="1696.0" width="52.0" height="52.0" class=""/>
<rect rx="6.0" ry="6.0" x="564.0" y="1696.0" width="52.0" height="52.0" class=""/>
<rect rx="6.0" ry="6.0" x="648.0" y="1696.0" width="52.0" height="52.0" class=""/>
<rect rx="6.0" ry="6.0" x="704.0" y="1690.4" width="52.0" height="52.0" class=""/>
<rect rx="6.0" ry="6.0" x="760.0" y="1690.4" width="52.0" height="52.0" class=""/>
<text x="30.0" y="1778.0" class="label">Mouse:</text>
<rect rx="6.0" ry="6.0" x="32.0" y="1836.0" width="52.0" height="52.0" class=""/>
<rect rx="6.0" ry="6.0" x="88.0" y="1829.0" width="52.0" height="52.0" class=""/>
<rect rx="6.0" ry="6.0" x="144.0" y="1815.0" width="52.0" height="52.0" class=""/>
<rect rx="6.0" ry="6.0" x="200.0" y="1808.0" width="52.0" height="52.0" class=""/>
<rect rx="6.0" ry="6.0" x="256.0" y="1815.0" width="52.0" height="52.0" class=""/>
<rect rx="6.0" ry="6.0" x="312.0" y="1822.0" width="52.0" height="52.0" class=""/>
<rect rx="6.0" ry="6.0" x="620.0" y="1822.0" width="52.0" height="52.0" class=""/>
<rect rx="6.0" ry="6.0" x="676.0" y="1815.0" width="52.0" height="52.0" class=""/>
<rect rx="6.0" ry="6.0" x="732.0" y="1808.0" width="52.0" height="52.0" class=""/>
<rect rx="6.0" ry="6.0" x="788.0" y="1815.0" width="52.0" height="52.0" class=""/>
<rect rx="6.0" ry="6.0" x="844.0" y="1829.0" width="52.0" height="52.0" class=""/>
<rect rx="6.0" ry="6.0" x="900.0" y="1836.0" width="52.0" height="52.0" class=""/>
<rect rx="6.0" ry="6.0" x="32.0" y="1892.0" width="52.0" height="52.0" class=""/>
<rect rx="6.0" ry="6.0" x="88.0" y="1885.0" width="52.0" height="52.0" class=""/>
<rect rx="6.0" ry="6.0" x="144.0" y="1871.0" width="52.0" height="52.0" class=""/>
<rect rx="6.0" ry="6.0" x="200.0" y="1864.0" width="52.0" height="52.0" class=""/>
<rect rx="6.0" ry="6.0" x="256.0" y="1871.0" width="52.0" height="52.0" class=""/>
<rect rx="6.0" ry="6.0" x="312.0" y="1878.0" width="52.0" height="52.0" class=""/>
<rect rx="6.0" ry="6.0" x="620.0" y="1878.0" width="52.0" height="52.0" class=""/>
<rect rx="6.0" ry="6.0" x="676.0" y="1871.0" width="52.0" height="52.0" class=""/>
<text x="702.0" y="1897.0" class="tap">BTN1</text>
<rect rx="6.0" ry="6.0" x="732.0" y="1864.0" width="52.0" height="52.0" class=""/>
<text x="758.0" y="1890.0" class="tap">
<tspan x="758.0" dy="-0.6em">MS</tspan><tspan x="758.0" dy="1.2em">U</tspan></text>
<rect rx="6.0" ry="6.0" x="788.0" y="1871.0" width="52.0" height="52.0" class=""/>
<text x="814.0" y="1897.0" class="tap">BTN2</text>
<rect rx="6.0" ry="6.0" x="844.0" y="1885.0" width="52.0" height="52.0" class=""/>
<text x="870.0" y="1911.0" class="tap">
<tspan x="870.0" dy="-0.6em">WH</tspan><tspan x="870.0" dy="1.2em">U</tspan></text>
<rect rx="6.0" ry="6.0" x="900.0" y="1892.0" width="52.0" height="52.0" class=""/>
<rect rx="6.0" ry="6.0" x="32.0" y="1948.0" width="52.0" height="52.0" class=""/>
<rect rx="6.0" ry="6.0" x="88.0" y="1941.0" width="52.0" height="52.0" class=""/>
<rect rx="6.0" ry="6.0" x="144.0" y="1927.0" width="52.0" height="52.0" class=""/>
<text x="170.0" y="1953.0" class="tap">ACL0</text>
<rect rx="6.0" ry="6.0" x="200.0" y="1920.0" width="52.0" height="52.0" class=""/>
<text x="226.0" y="1946.0" class="tap">ACL1</text>
<rect rx="6.0" ry="6.0" x="256.0" y="1927.0" width="52.0" height="52.0" class=""/>
<text x="282.0" y="1953.0" class="tap">ACL2</text>
<rect rx="6.0" ry="6.0" x="312.0" y="1934.0" width="52.0" height="52.0" class=""/>
<rect rx="6.0" ry="6.0" x="620.0" y="1934.0" width="52.0" height="52.0" class=""/>
<rect rx="6.0" ry="6.0" x="676.0" y="1927.0" width="52.0" height="52.0" class=""/>
<text x="702.0" y="1953.0" class="tap">
<tspan x="702.0" dy="-0.6em">MS</tspan><tspan x="702.0" dy="1.2em">L</tspan></text>
<rect rx="6.0" ry="6.0" x="732.0" y="1920.0" width="52.0" height="52.0" class=""/>
<text x="758.0" y="1946.0" class="tap">
<tspan x="758.0" dy="-0.6em">MS</tspan><tspan x="758.0" dy="1.2em">D</tspan></text>
<rect rx="6.0" ry="6.0" x="788.0" y="1927.0" width="52.0" height="52.0" class=""/>
<text x="814.0" y="1953.0" class="tap">
<tspan x="814.0" dy="-0.6em">MS</tspan><tspan x="814.0" dy="1.2em">R</tspan></text>
<rect rx="6.0" ry="6.0" x="844.0" y="1941.0" width="52.0" height="52.0" class=""/>
<text x="870.0" y="1967.0" class="tap">
<tspan x="870.0" dy="-0.6em">WH</tspan><tspan x="870.0" dy="1.2em">D</tspan></text>
<rect rx="6.0" ry="6.0" x="900.0" y="1948.0" width="52.0" height="52.0" class=""/>
<rect rx="6.0" ry="6.0" x="32.0" y="2004.0" width="52.0" height="52.0" class=""/>
<rect rx="6.0" ry="6.0" x="88.0" y="1997.0" width="52.0" height="52.0" class=""/>
<rect rx="6.0" ry="6.0" x="144.0" y="1983.0" width="52.0" height="52.0" class=""/>
<rect rx="6.0" ry="6.0" x="200.0" y="1976.0" width="52.0" height="52.0" class=""/>
<rect rx="6.0" ry="6.0" x="256.0" y="1983.0" width="52.0" height="52.0" class=""/>
<rect rx="6.0" ry="6.0" x="312.0" y="1990.0" width="52.0" height="52.0" class=""/>
<rect rx="6.0" ry="6.0" x="368.0" y="1962.0" width="52.0" height="52.0" class=""/>
<rect rx="6.0" ry="6.0" x="564.0" y="1962.0" width="52.0" height="52.0" class=""/>
<rect rx="6.0" ry="6.0" x="620.0" y="1990.0" width="52.0" height="52.0" class=""/>
<rect rx="6.0" ry="6.0" x="676.0" y="1983.0" width="52.0" height="52.0" class=""/>
<text x="702.0" y="2009.0" class="tap">
<tspan x="702.0" dy="-0.6em">WH</tspan><tspan x="702.0" dy="1.2em">L</tspan></text>
<rect rx="6.0" ry="6.0" x="732.0" y="1976.0" width="52.0" height="52.0" class=""/>
<rect rx="6.0" ry="6.0" x="788.0" y="1983.0" width="52.0" height="52.0" class=""/>
<text x="814.0" y="2009.0" class="tap">
<tspan x="814.0" dy="-0.6em">WH</tspan><tspan x="814.0" dy="1.2em">R</tspan></text>
<rect rx="6.0" ry="6.0" x="844.0" y="1997.0" width="52.0" height="52.0" class=""/>
<rect rx="6.0" ry="6.0" x="900.0" y="2004.0" width="52.0" height="52.0" class=""/>
<rect rx="6.0" ry="6.0" x="172.0" y="2040.4" width="52.0" height="52.0" class=""/>
<rect rx="6.0" ry="6.0" x="228.0" y="2040.4" width="52.0" height="52.0" class=""/>
<rect rx="6.0" ry="6.0" x="284.0" y="2046.0" width="52.0" height="52.0" class=""/>
<rect rx="6.0" ry="6.0" x="368.0" y="2046.0" width="52.0" height="52.0" class=""/>
<rect rx="6.0" ry="6.0" x="564.0" y="2046.0" width="52.0" height="52.0" class=""/>
<rect rx="6.0" ry="6.0" x="648.0" y="2046.0" width="52.0" height="52.0" class=""/>
<rect rx="6.0" ry="6.0" x="704.0" y="2040.4" width="52.0" height="52.0" class=""/>
<rect rx="6.0" ry="6.0" x="760.0" y="2040.4" width="52.0" height="52.0" class=""/>
<text x="30.0" y="2128.0" class="label">Gaming:</text>
<rect rx="6.0" ry="6.0" x="32.0" y="2186.0" width="52.0" height="52.0" class=""/>
<rect rx="6.0" ry="6.0" x="88.0" y="2179.0" width="52.0" height="52.0" class=""/>
<rect rx="6.0" ry="6.0" x="144.0" y="2165.0" width="52.0" height="52.0" class=""/>
<rect rx="6.0" ry="6.0" x="200.0" y="2158.0" width="52.0" height="52.0" class=""/>
<rect rx="6.0" ry="6.0" x="256.0" y="2165.0" width="52.0" height="52.0" class=""/>
<rect rx="6.0" ry="6.0" x="312.0" y="2172.0" width="52.0" height="52.0" class=""/>
<rect rx="6.0" ry="6.0" x="620.0" y="2172.0" width="52.0" height="52.0" class=""/>
<rect rx="6.0" ry="6.0" x="676.0" y="2165.0" width="52.0" height="52.0" class=""/>
<rect rx="6.0" ry="6.0" x="732.0" y="2158.0" width="52.0" height="52.0" class=""/>
<rect rx="6.0" ry="6.0" x="788.0" y="2165.0" width="52.0" height="52.0" class=""/>
<rect rx="6.0" ry="6.0" x="844.0" y="2179.0" width="52.0" height="52.0" class=""/>
<rect rx="6.0" ry="6.0" x="900.0" y="2186.0" width="52.0" height="52.0" class=""/>
<rect rx="6.0" ry="6.0" x="32.0" y="2242.0" width="52.0" height="52.0" class=""/>
<rect rx="6.0" ry="6.0" x="88.0" y="2235.0" width="52.0" height="52.0" class=""/>
<text x="114.0" y="2261.0" class="tap">TAB</text>
<rect rx="6.0" ry="6.0" x="144.0" y="2221.0" width="52.0" height="52.0" class=""/>
<text x="170.0" y="2247.0" class="tap">A</text>
<rect rx="6.0" ry="6.0" x="200.0" y="2214.0" width="52.0" height="52.0" class=""/>
<text x="226.0" y="2240.0" class="tap">Z</text>
<rect rx="6.0" ry="6.0" x="256.0" y="2221.0" width="52.0" height="52.0" class=""/>
<text x="282.0" y="2247.0" class="tap">E</text>
<rect rx="6.0" ry="6.0" x="312.0" y="2228.0" width="52.0" height="52.0" class=""/>
<text x="338.0" y="2254.0" class="tap">R</text>
<rect rx="6.0" ry="6.0" x="620.0" y="2228.0" width="52.0" height="52.0" class=""/>
<rect rx="6.0" ry="6.0" x="676.0" y="2221.0" width="52.0" height="52.0" class=""/>
<rect rx="6.0" ry="6.0" x="732.0" y="2214.0" width="52.0" height="52.0" class=""/>
<rect rx="6.0" ry="6.0" x="788.0" y="2221.0" width="52.0" height="52.0" class=""/>
<rect rx="6.0" ry="6.0" x="844.0" y="2235.0" width="52.0" height="52.0" class=""/>
<rect rx="6.0" ry="6.0" x="900.0" y="2242.0" width="52.0" height="52.0" class=""/>
<rect rx="6.0" ry="6.0" x="32.0" y="2298.0" width="52.0" height="52.0" class=""/>
<text x="58.0" y="2324.0" class="tap">LSFT</text>
<rect rx="6.0" ry="6.0" x="88.0" y="2291.0" width="52.0" height="52.0" class=""/>
<text x="114.0" y="2317.0" class="tap">3</text>
<rect rx="6.0" ry="6.0" x="144.0" y="2277.0" width="52.0" height="52.0" class=""/>
<text x="170.0" y="2303.0" class="tap">Q</text>
<rect rx="6.0" ry="6.0" x="200.0" y="2270.0" width="52.0" height="52.0" class=""/>
<text x="226.0" y="2296.0" class="tap">S</text>
<rect rx="6.0" ry="6.0" x="256.0" y="2277.0" width="52.0" height="52.0" class=""/>
<text x="282.0" y="2303.0" class="tap">D</text>
<rect rx="6.0" ry="6.0" x="312.0" y="2284.0" width="52.0" height="52.0" class=""/>
<text x="338.0" y="2310.0" class="tap">F</text>
<rect rx="6.0" ry="6.0" x="620.0" y="2284.0" width="52.0" height="52.0" class=""/>
<rect rx="6.0" ry="6.0" x="676.0" y="2277.0" width="52.0" height="52.0" class=""/>
<rect rx="6.0" ry="6.0" x="732.0" y="2270.0" width="52.0" height="52.0" class=""/>
<rect rx="6.0" ry="6.0" x="788.0" y="2277.0" width="52.0" height="52.0" class=""/>
<rect rx="6.0" ry="6.0" x="844.0" y="2291.0" width="52.0" height="52.0" class=""/>
<rect rx="6.0" ry="6.0" x="900.0" y="2298.0" width="52.0" height="52.0" class=""/>
<rect rx="6.0" ry="6.0" x="32.0" y="2354.0" width="52.0" height="52.0" class=""/>
<text x="58.0" y="2380.0" class="tap">LCTL</text>
<rect rx="6.0" ry="6.0" x="88.0" y="2347.0" width="52.0" height="52.0" class=""/>
<text x="114.0" y="2373.0" class="tap">4</text>
<rect rx="6.0" ry="6.0" x="144.0" y="2333.0" width="52.0" height="52.0" class=""/>
<text x="170.0" y="2359.0" class="tap">W</text>
<rect rx="6.0" ry="6.0" x="200.0" y="2326.0" width="52.0" height="52.0" class=""/>
<text x="226.0" y="2352.0" class="tap">X</text>
<rect rx="6.0" ry="6.0" x="256.0" y="2333.0" width="52.0" height="52.0" class=""/>
<text x="282.0" y="2359.0" class="tap">C</text>
<rect rx="6.0" ry="6.0" x="312.0" y="2340.0" width="52.0" height="52.0" class=""/>
<text x="338.0" y="2366.0" class="tap">V</text>
<rect rx="6.0" ry="6.0" x="368.0" y="2312.0" width="52.0" height="52.0" class=""/>
<text x="394.0" y="2338.0" class="tap">5</text>
<rect rx="6.0" ry="6.0" x="564.0" y="2312.0" width="52.0" height="52.0" class=""/>
<rect rx="6.0" ry="6.0" x="620.0" y="2340.0" width="52.0" height="52.0" class=""/>
<rect rx="6.0" ry="6.0" x="676.0" y="2333.0" width="52.0" height="52.0" class=""/>
<rect rx="6.0" ry="6.0" x="732.0" y="2326.0" width="52.0" height="52.0" class=""/>
<rect rx="6.0" ry="6.0" x="788.0" y="2333.0" width="52.0" height="52.0" class=""/>
<rect rx="6.0" ry="6.0" x="844.0" y="2347.0" width="52.0" height="52.0" class=""/>
<rect rx="6.0" ry="6.0" x="900.0" y="2354.0" width="52.0" height="52.0" class=""/>
<rect rx="6.0" ry="6.0" x="172.0" y="2390.4" width="52.0" height="52.0" class=""/>
<text x="198.0" y="2416.4" class="tap">Esc</text>
<rect rx="6.0" ry="6.0" x="228.0" y="2390.4" width="52.0" height="52.0" class=""/>
<text x="254.0" y="2416.4" class="tap">2</text>
<rect rx="6.0" ry="6.0" x="284.0" y="2396.0" width="52.0" height="52.0" class=""/>
<text x="310.0" y="2422.0" class="tap">1</text>
<rect rx="6.0" ry="6.0" x="368.0" y="2396.0" width="52.0" height="52.0" class=""/>
<text x="394.0" y="2422.0" class="tap">SPC</text>
<rect rx="6.0" ry="6.0" x="564.0" y="2396.0" width="52.0" height="52.0" class=""/>
<text x="590.0" y="2422.0" class="tap">ENT</text>
<rect rx="6.0" ry="6.0" x="648.0" y="2396.0" width="52.0" height="52.0" class=""/>
<text x="674.0" y="2446.0" class="hold">Default</text>
<rect rx="6.0" ry="6.0" x="704.0" y="2390.4" width="52.0" height="52.0" class=""/>
<rect rx="6.0" ry="6.0" x="760.0" y="2390.4" width="52.0" height="52.0" class=""/>
</svg>
